<svg id="Layer_1" data-name="Layer 1" xmlns="http://www.w3.org/2000/svg" viewBox="0 0 1686.48 1982.18"><defs><style>.cls-1{fill:#f7a400;}</style></defs><path class="cls-1" d="M897.6,482.46c11.57,14.76,12.42,27,3.51,37-8.61,9.72-20.4,10.54-33.56-.26,9.11-3.52,18.29-4.38,22.46-9.41C894.56,504.36,894.45,495,897.6,482.46Z" transform="translate(-673.8 -204.06)"/><path class="cls-1" d="M1560.13,451.71l-52.46,3.81c-6.15-16.94-5.18-27.07,13.55-29.11,3.21-.36,5.82-6.24,8.71-9.57-3.56-2.45-7.07-6.92-10.7-7-25.32-.75-39.41,17.83-34.84,43.52,1.13,6.33-1,13.35-2.23,19.95-2,11.12-6.35,22.14-6.42,33.22q-1.2,175.92-1.22,351.83-.29,323-.23,646.08,0,137.46-.18,274.91c0,25.82-12.61,44.67-33.36,50.42-19.8,5.48-42.28-2.31-51-20.82-4.91-10.44-6.19-23.4-6.22-35.23q-.65-267.3-.43-534.61c0-244.86.48-489.73.07-734.6-.08-49.78,16.27-91.18,57.93-118.84,83.68-55.55,192-10.13,207.2,90.07,4.29,28.3,3.11,57.54,3.1,86.35q0,423-.48,846.09-.08,317.3.33,634.57c0,32.14,16.54,53,42.47,53.17,26.55.2,43.94-21,44-54.06q.09-698.07.1-1396.14,0-91.34-.09-182.69c0-33.37,16.54-52.71,45-52.76,27.51,0,45.58,20.8,45.58,52.84q-.08,672.11-.22,1344.2c0,82,.58,164.11-.34,246.15-.73,64.56-44.36,117.4-104.89,129.8-84.15,17.24-159.91-41.53-162.23-127.48-1.56-57.65-.27-115.37-.56-173.06-.39-78.82-1.63-157.64-1.55-236.46q.55-538.26,1.65-1076.52C1560.18,530.8,1560.13,491.88,1560.13,451.71Z" transform="translate(-673.8 -204.06)"/><path class="cls-1" d="M866.82,983.48c-20.07-5.63-14.72-23-14.73-38q-.2-264.43-.15-528.86c0-7-.07-14.12.43-21.15,1.83-25.46,18.38-41.26,43.66-42,24-.66,43,16.08,44.87,40.94,1.17,15.3.57,30.75.57,46.13q0,310.59-.06,621.18c0,7.69-.29,15.4.18,23.07,1.71,28,19.49,46,44.56,45.49s41.69-18.84,41.77-47.5c.25-78.85.09-157.7.1-236.55,0-148.08.28-296.16-.09-444.24-.1-42.9,10.33-81.35,42.62-111.23,41.82-38.69,90.86-47.12,142.74-26.4,52.49,21,81.11,62.61,82.12,119.11,1.65,92.92.56,185.89.58,278.84q.06,226.93,0,453.87c0,8.32.38,16.76-.8,25-3.25,22.53-23.48,38.91-46,38-23.12-.93-41.07-18-42.82-41.3-.67-8.93-.31-17.94-.31-26.91q-.06-352.89-.28-705.79c0-11.31-1.17-23.16-4.67-33.81-6.13-18.65-21.6-26.55-40.31-26.84-17.76-.27-35.08,13.49-38.89,31.4-2.62,12.38-3.16,25.37-3.17,38.1q-.24,334.62-.13,669.24c0,61.41-30.32,107.11-84.84,129.44-82.25,33.67-176.86-25.74-181.35-114.46-1.52-30.06-1.89-60.28-.53-90.33C852.28,1000,861.07,992.5,866.82,983.48ZM893.89,1025c-3.15,12.56-3,21.9-7.58,27.37-4.17,5-13.36,5.89-22.46,9.41,13.15,10.79,24.95,10,33.56.26C906.32,1052,905.46,1039.76,893.89,1025Z" transform="translate(-673.8 -204.06)"/><path class="cls-1" d="M893.7,1175.46c13.24,12.25,27.21,21.45,41.76,27.67a156.89,156.89,0,0,1,36.62-18.49c32.57-11.53,67.6-15.61,100.86-25l1.11-.62c3-1.77,6-3.52,9-5.29.79-.47,1.41-.82,2-1.15.55-.7,1.27-1.57,2.38-2.8,1.64-1.8,3.32-3.74,5.08-5.51,2.83-5.18,6.38-10.25,9.22-15.4.35-.63.65-1.18.92-1.7.8-2.18,1.62-4.36,2.35-6.57,2.26-6.79,4.16-13.71,5.8-20.68,1.6-6.81,2.82-13.68,4-20.57.31-3.26.68-6.5,1-9.76,2.92-34,2.22-68.21.65-102.26-3.49-75.77-5.84-150.84-6.42-226.74-.78-104.36-4.27-208.79-17.76-312.38a54.47,54.47,0,0,1,6.86-34.1c-.57-.19-1.16-.33-1.74-.54a210.65,210.65,0,0,0-27.12-8.07,133.31,133.31,0,0,0-17.74.38,58.06,58.06,0,0,1-23.26-2.64q0,338.91-.28,677.81c0,11.31-1.17,23.16-4.67,33.81-6.13,18.65-21.59,26.55-40.3,26.84-17.76.27-35.09-13.49-38.89-31.4-2.62-12.38-3.17-25.38-3.18-38.1q-.23-328.6-.12-657.22a55.79,55.79,0,0,1-15,7.61,56.64,56.64,0,0,1-28.95,6.47c-.81,0-1.62,0-2.43-.11A192.63,192.63,0,0,1,874,406.11c-.55-.11-1.08-.23-1.61-.38a7,7,0,0,1-.88-.3l-17.94-7.57c-.86-.43-1.65-.94-2.48-1.42.19,74.52.07,149,.08,223.55,0,148.08.29,296.16-.08,444.24C851,1107.13,861.4,1145.57,893.7,1175.46Z" transform="translate(-673.8 -204.06)"/><path class="cls-1" d="M1425.13,625.23a127.16,127.16,0,0,1,16.4-5.24,292.21,292.21,0,0,1,33.37-5.89q0-36.15,0-72.29c0-12.55.54-25.38,3.13-37.6,3.75-17.68,20.85-31.26,38.39-31,18.46.28,33.73,8.08,39.78,26.49,3.45,10.51,4.59,22.21,4.61,33.37q0,41.32.07,82.66,8.77,1.44,17.46,3.26a103.9,103.9,0,0,1,14.76,4.31c17.92,6.7,39.24,14.27,57,25,.06-45.56-.08-91.11-.89-136.66-1-55.76-29.24-96.86-81-117.56-51.22-20.46-99.62-12.14-140.9,26.05-31.87,29.5-42.17,67.44-42.06,109.79q.13,55.66.17,111.32C1398.46,635.18,1412.24,630.31,1425.13,625.23Z" transform="translate(-673.8 -204.06)"/><path class="cls-1" d="M1914.88,1258.23q0-288.36,0-576.71c0-32.33,18.11-51.51,46.91-50.43,26.27,1,43.7,20.53,43.84,50.63.32,68.56.15,137.13.14,205.69q0,471.95,0,943.88c0,30.4-13.72,49.78-38.4,53.81-27,4.41-50-13.34-52.26-40.56-.37-4.45-.22-9-.23-13.44Z" transform="translate(-673.8 -204.06)"/><path class="cls-1" d="M843.88,253.22c.23-28.13,22.14-49.66,50-49.15A48.64,48.64,0,0,1,942,253.82c-.53,28.37-22.23,49.59-50.08,49C864.23,302.18,843.65,280.94,843.88,253.22Z" transform="translate(-673.8 -204.06)"/><path class="cls-1" d="M2269.65,1014.2c0-16.62-.5-33.26.12-49.86,1-27,19-45.5,44.22-46.3,22.65-.72,43.85,16.23,45,40.9,1.84,38.24,1.59,76.7-.25,114.94-1.05,21.78-24.43,38.79-46.06,37.67-22.25-1.16-41.37-19.15-42.57-41.75-1-18.48-.2-37.06-.2-55.6Z" transform="translate(-673.8 -204.06)"/><path class="cls-1" d="M2360,1574.17c0,16.61.44,33.24-.1,49.83-.9,27.69-19.81,46.16-46,45.68-25.34-.46-43.64-19-44-45.7-.45-33.85-.54-67.72,0-101.57.43-26,18.3-43.91,42.92-44.54,26.27-.67,45.15,15.87,46.82,42.66,1.12,17.82.21,35.76.21,53.64Z" transform="translate(-673.8 -204.06)"/><path class="cls-1" d="M2089.66,696.46c.23-27.53,21.66-48.6,48.92-48.1A47.61,47.61,0,0,1,2185.67,697c-.52,27.76-21.76,48.52-49,47.92C2109.57,744.36,2089.44,723.58,2089.66,696.46Z" transform="translate(-673.8 -204.06)"/><rect class="cls-1" x="1419.7" y="642.78" width="88.33" height="400.95" rx="44.17"/><rect class="cls-1" y="340.43" width="88.33" height="400.95" rx="44.17"/><rect class="cls-1" x="188.89" y="798.97" width="60.51" height="88.57"/></svg>